<?xml version="1.0" encoding="UTF-8"?>
<svg id="a" data-name="Ebene 1" xmlns="http://www.w3.org/2000/svg" viewBox="0 0 86.09 74.56">
  <polygon points="61.93 53.35 60.13 53.35 60.13 49.15 56.53 49.15 56.53 53.35 54.73 53.35 54.73 49.15 51.13 49.15 51.13 53.35 49.33 53.35 49.33 49.15 45.73 49.15 45.73 53.35 43.93 53.35 43.93 49.15 40.33 49.15 40.33 53.35 38.53 53.35 38.53 49.15 34.93 49.15 34.93 53.35 33.13 53.35 33.13 49.15 31.11 49.15 31.11 47.05 26.92 47.05 26.92 45.25 31.11 45.25 31.11 41.65 26.92 41.65 26.92 39.85 31.11 39.85 31.11 36.25 26.92 36.25 26.92 34.45 31.11 34.45 31.11 30.85 26.92 30.85 26.92 29.05 31.11 29.05 31.11 25.45 26.92 25.45 26.92 23.65 31.11 23.65 31.11 20.05 26.92 20.05 26.92 18.25 31.11 18.25 31.11 16.23 22.11 16.23 22.11 58.15 64.04 58.15 64.04 49.15 61.93 49.15 61.93 53.35" fill="#43444a"/>
  <path d="M64.56,0H21.52L0,37.28l21.52,37.28h43.04l21.52-37.28L64.56,0ZM20.31,59.95V14.43h12.6V47.35h32.93v12.6H20.31Z" fill="#43444a"/>
</svg>