<?xml version="1.0" encoding="utf-8"?>
<!-- Generator: Adobe Illustrator 26.2.1, SVG Export Plug-In . SVG Version: 6.00 Build 0)  -->
<svg version="1.1" id="Ebene_1" xmlns="http://www.w3.org/2000/svg" xmlns:xlink="http://www.w3.org/1999/xlink" x="0px" y="0px"
	 viewBox="0 0 595.3 841.9" style="enable-background:new 0 0 595.3 841.9;" xml:space="preserve">
<style type="text/css">
	.st0{fill:#4354A1;}
</style>
<g>
	<path class="st0" d="M308.7,406.8h-20.8v27.4h20.8V406.8z M290.1,413.6h8.1v1.2h-8.1V413.6z M298.3,429.3h-8.1v-1.2h8.1V429.3z
		 M298.3,422h-8.1v-1.2h8.1V422z M300,412.2l1.4,2.1l4.6-3.4l0.7,1l-5.6,4.1l-2.1-3.1L300,412.2z M301.1,430.5l-2.1-3.1l1-0.7
		l1.4,2.1l4.6-3.4l0.7,1L301.1,430.5z M301.1,423.2l-2.1-3.1l1-0.7l1.4,2.1l4.6-3.4l0.7,1L301.1,423.2z"/>
	<path class="st0" d="M312.4,396h-28.3l-14.2,24.6l14.2,24.5h28.3l14.2-24.5L312.4,396z M309.9,435.4h-23.2v-29.7h23.2V435.4z"/>
</g>
</svg>
