<?xml version="1.0" encoding="UTF-8"?>
<svg id="a" data-name="Ebene 1" xmlns="http://www.w3.org/2000/svg" viewBox="0 0 86.09 74.56">
  <path d="M58.89,16.4H27.24V57.98h31.65V16.4Zm-28.2,10.25h12.3v1.8h-12.3v-1.8Zm12.38,23.84h-12.3v-1.8h12.3v1.8Zm0-11.02h-12.3v-1.8h12.3v1.8Zm2.55-14.91l2.11,3.17,7.01-5.11,1.06,1.46-8.53,6.22-3.16-4.73,1.5-1Zm1.74,27.76l-3.16-4.73,1.5-1,2.11,3.17,7.01-5.11,1.06,1.46-8.53,6.22Zm0-11.02l-3.16-4.73,1.5-1,2.11,3.17,7.01-5.11,1.06,1.46-8.53,6.22Z" style="fill: #4354a1;"/>
  <path d="M64.56,0H21.52L0,37.28l21.52,37.28h43.04l21.52-37.28L64.56,0Zm-3.87,59.78H25.44V14.6H60.69V59.78Z" style="fill: #4354a1;"/>
</svg>