<?xml version="1.0" encoding="utf-8"?>
<!-- Generator: Adobe Illustrator 26.2.1, SVG Export Plug-In . SVG Version: 6.00 Build 0)  -->
<svg version="1.1" id="Ebene_1" xmlns="http://www.w3.org/2000/svg" xmlns:xlink="http://www.w3.org/1999/xlink" x="0px" y="0px"
	 viewBox="0 0 595.3 841.9" style="enable-background:new 0 0 595.3 841.9;" xml:space="preserve">
<style type="text/css">
	.st0{fill:none;}
	.st1{fill:#7B1E15;}
</style>
<rect x="269.9" y="396" class="st0" width="56.7" height="49.1"/>
<g>
	<path class="st1" d="M307.2,422.7c-3.2,0-5.7,2.6-5.7,5.7c0,3.2,2.6,5.7,5.7,5.7c1.6,0,3.1-0.6,4.2-1.8c1-1.1,1.5-2.5,1.5-3.9
		C312.9,425.3,310.3,422.7,307.2,422.7z"/>
	<path class="st1" d="M307.2,421.5c0.4,0,0.8,0,1.2,0.1v-5.1h-20.3v15.6h13.3c-0.7-1.1-1.1-2.3-1.1-3.7
		C300.3,424.6,303.4,421.5,307.2,421.5z"/>
	<polygon class="st1" points="298.3,406.2 286.4,415.4 310.1,415.4 	"/>
	<path class="st1" d="M312.4,396h-28.3l-14.2,24.6l14.2,24.5h28.3l14.2-24.5L312.4,396z M312,433.4c-1.3,1.2-3,1.9-4.8,1.9
		c-1.9,0-3.6-0.8-4.9-2h-15.4v-16.7H283l15.3-11.9l15.2,11.9h-3.9v5.4c2.6,1,4.5,3.5,4.5,6.5c0,1.5-0.5,2.9-1.4,4.1l3,3l-0.8,0.8
		L312,433.4z"/>
</g>
</svg>
