<?xml version="1.0" encoding="utf-8"?>
<!-- Generator: Adobe Illustrator 26.2.1, SVG Export Plug-In . SVG Version: 6.00 Build 0)  -->
<svg version="1.1" id="Ebene_1" xmlns="http://www.w3.org/2000/svg" xmlns:xlink="http://www.w3.org/1999/xlink" x="0px" y="0px"
	 viewBox="0 0 595.3 841.9" style="enable-background:new 0 0 595.3 841.9;" xml:space="preserve">
<style type="text/css">
	.st0{fill:#43444A;}
</style>
<g>
	<polygon class="st0" points="310.7,431.2 309.5,431.2 309.5,428.4 307.1,428.4 307.1,431.2 306,431.2 306,428.4 303.6,428.4 
		303.6,431.2 302.4,431.2 302.4,428.4 300,428.4 300,431.2 298.9,431.2 298.9,428.4 296.5,428.4 296.5,431.2 295.3,431.2 
		295.3,428.4 292.9,428.4 292.9,431.2 291.7,431.2 291.7,428.4 290.4,428.4 290.4,427 287.6,427 287.6,425.8 290.4,425.8 
		290.4,423.4 287.6,423.4 287.6,422.3 290.4,422.3 290.4,419.9 287.6,419.9 287.6,418.7 290.4,418.7 290.4,416.3 287.6,416.3 
		287.6,415.1 290.4,415.1 290.4,412.8 287.6,412.8 287.6,411.6 290.4,411.6 290.4,409.2 287.6,409.2 287.6,408 290.4,408 
		290.4,406.7 284.5,406.7 284.5,434.3 312.1,434.3 312.1,428.4 310.7,428.4 	"/>
	<path class="st0" d="M312.4,396h-28.3l-14.2,24.6l14.2,24.5h28.3l14.2-24.5L312.4,396z M283.3,435.5v-30h8.3v21.7h21.7v8.3H283.3z"
		/>
</g>
</svg>
