<?xml version="1.0" encoding="utf-8"?>
<!-- Generator: Adobe Illustrator 26.2.1, SVG Export Plug-In . SVG Version: 6.00 Build 0)  -->
<svg version="1.1" id="Ebene_1" xmlns="http://www.w3.org/2000/svg" xmlns:xlink="http://www.w3.org/1999/xlink" x="0px" y="0px"
	 viewBox="0 0 595.3 841.9" style="enable-background:new 0 0 595.3 841.9;" xml:space="preserve">
<style type="text/css">
	.st0{fill:none;}
	.st1{fill:#A8C82A;}
</style>
<g>
	<polygon class="st0" points="326.6,396 312.4,396 326.6,420.6 	"/>
	<polygon class="st0" points="284.1,396 269.9,396 269.9,445.1 284.1,445.1 269.9,420.6 	"/>
	<path class="st0" d="M293,410.3c0.1-0.2,0.1-0.4,0.1-0.6c0-1.5-2-2.7-4.5-2.7c-2.6,0-4.5,1.2-4.5,2.7c0,0.2,0,0.3,0.1,0.5v22.6
		l0.3,0.2c0.1,0.1,1.9,1.2,4.3,1.2c1.2,0,2.6-0.3,4-1.2l0.3-0.2v0h19.5v-22.4H293z M291.9,432c-2.9,1.7-5.7,0.5-6.6,0v-20.5
		c0.8,0.5,2,0.8,3.3,0.8c1.3,0,2.5-0.3,3.3-0.8L291.9,432z M288.6,411.3c-2.1,0-3.5-0.9-3.5-1.7c0-0.8,1.4-1.7,3.5-1.7
		c2.1,0,3.5,0.9,3.5,1.7C292.1,410.4,290.7,411.3,288.6,411.3z M311.3,431.5h-18.3v-20h18.3V431.5z"/>
	<polygon class="st0" points="312.4,445.1 326.6,445.1 326.6,420.6 	"/>
	<path class="st1" d="M285.3,411.5V432c0.9,0.5,3.7,1.7,6.6,0l0-20.5c-0.8,0.5-2,0.8-3.3,0.8C287.3,412.3,286.1,412,285.3,411.5z"/>
	<path class="st1" d="M288.6,408c-2.1,0-3.5,0.9-3.5,1.7c0,0.8,1.4,1.7,3.5,1.7c2.1,0,3.5-0.9,3.5-1.7
		C292.1,408.9,290.7,408,288.6,408z"/>
	<path class="st1" d="M293.1,431.5h18.3v-20h-18.3V431.5z M301.4,413.5h7.4v6.5h-1.2v-5.3h-6.3V413.5z M295.1,425.2h7.1v1.2h-7.1
		V425.2z M295.1,428.5h7.1v1.2h-7.1V428.5z"/>
	<path class="st1" d="M326.6,420.6L312.4,396h-28.3l-14.2,24.6l14.2,24.5h28.3L326.6,420.6L326.6,420.6z M293.1,432.7L293.1,432.7
		l-0.3,0.2c-1.4,0.9-2.8,1.2-4,1.2c-2.4,0-4.2-1.1-4.3-1.2l-0.3-0.2v-22.6c0-0.2-0.1-0.3-0.1-0.5c0-1.5,2-2.7,4.5-2.7
		c2.5,0,4.5,1.2,4.5,2.7c0,0.2-0.1,0.4-0.1,0.6h19.5v22.4H293.1z"/>
</g>
</svg>
