<?xml version="1.0" encoding="UTF-8"?>
<svg id="a" data-name="Ebene 1" xmlns="http://www.w3.org/2000/svg" viewBox="0 0 86.09 74.56">
  <rect x="23.05" y="49.44" width="7.68" height="7.68" style="fill: #677d29;"/>
  <polygon points="56.35 39.43 41.16 33.89 51.89 44.63 50.62 45.9 39.88 35.17 45.42 50.36 57.48 56.91 62.9 51.49 56.35 39.43" style="fill: #677d29;"/>
  <rect x="23.05" y="17.04" width="7.68" height="7.68" style="fill: #677d29;"/>
  <rect x="55.45" y="17.04" width="7.68" height="7.68" style="fill: #677d29;"/>
  <path d="M64.56,0H21.52L0,37.28l21.52,37.28h43.04l21.52-37.28L64.56,0ZM32.53,26.53h-4.74v21.12h4.74v11.28h-11.28v-11.28h4.74V26.53h-4.74V15.24h11.28v4.74h21.12v-4.74h11.28v11.28h-11.28v-4.74h-21.12v4.74Zm25.27,32.61l-13.85-7.52-7.81-21.46,21.46,7.81,7.52,13.85-7.32,7.32Z" style="fill: #677d29;"/>
</svg>