<?xml version="1.0" encoding="UTF-8"?>
<svg id="a" data-name="Ebene 1" xmlns="http://www.w3.org/2000/svg" viewBox="0 0 86.09 74.56">
  <rect y="0" width="86.09" height="74.56" style="fill: none;"/>
  <g>
    <path d="M56.59,40.53c-4.79,0-8.69,3.9-8.69,8.69s3.9,8.69,8.69,8.69c2.43,0,4.68-.98,6.34-2.75,1.52-1.62,2.35-3.73,2.35-5.95,0-4.79-3.9-8.69-8.69-8.69Z" style="fill: #7b1e15;"/>
    <path d="M56.59,38.73c.63,0,1.24,.07,1.84,.17v-7.7H27.57v23.62h20.16c-1.03-1.62-1.64-3.54-1.64-5.6,0-5.79,4.71-10.49,10.49-10.49Z" style="fill: #7b1e15;"/>
    <polygon points="43.05 15.41 25.05 29.4 60.97 29.4 43.05 15.41" style="fill: #7b1e15;"/>
    <path d="M64.56,0H21.52L0,37.28l21.52,37.28h43.04l21.52-37.28L64.56,0Zm-.7,56.76c-1.95,1.87-4.56,2.95-7.27,2.95-2.9,0-5.53-1.18-7.43-3.09H25.77V31.2h-5.97L43.05,13.13l23.15,18.07h-5.96v8.19c3.99,1.49,6.85,5.32,6.85,9.83,0,2.25-.74,4.38-2.05,6.16l4.6,4.6-1.27,1.27-4.49-4.49Z" style="fill: #7b1e15;"/>
  </g>
</svg>