<?xml version="1.0" encoding="utf-8"?>
<!-- Generator: Adobe Illustrator 26.2.1, SVG Export Plug-In . SVG Version: 6.00 Build 0)  -->
<svg version="1.1" id="Ebene_1" xmlns="http://www.w3.org/2000/svg" xmlns:xlink="http://www.w3.org/1999/xlink" x="0px" y="0px"
	 viewBox="0 0 595.3 841.9" style="enable-background:new 0 0 595.3 841.9;" xml:space="preserve">
<style type="text/css">
	.st0{fill:#677D29;}
</style>
<g>
	<rect x="285.1" y="428.6" class="st0" width="5.1" height="5.1"/>
	<polygon class="st0" points="307,422 297,418.3 304.1,425.4 303.3,426.2 296.2,419.2 299.8,429.2 307.8,433.5 311.3,429.9 	"/>
	<rect x="285.1" y="407.2" class="st0" width="5.1" height="5.1"/>
	<rect x="306.4" y="407.2" class="st0" width="5.1" height="5.1"/>
	<path class="st0" d="M312.4,396h-28.3l-14.2,24.6l14.2,24.5h28.3l14.2-24.5L312.4,396z M291.3,413.5h-3.1v13.9h3.1v7.4h-7.4v-7.4
		h3.1v-13.9h-3.1v-7.4h7.4v3.1h13.9v-3.1h7.4v7.4h-7.4v-3.1h-13.9V413.5z M308,435l-9.1-5l-5.1-14.1l14.1,5.1l5,9.1L308,435z"/>
</g>
</svg>
