<?xml version="1.0" encoding="UTF-8"?>
<svg id="a" data-name="Ebene 1" xmlns="http://www.w3.org/2000/svg" viewBox="0 0 86.09 74.56">
  <polygon points="86.09 0 64.56 0 86.09 37.28 86.09 0" fill="none"/>
  <polygon points="21.52 0 0 0 0 74.56 21.52 74.56 0 37.28 21.52 0" fill="none"/>
  <path d="M35.09,21.62c.12-.3,.19-.61,.19-.94,0-2.3-3.04-4.1-6.91-4.1s-6.91,1.8-6.91,4.1c0,.26,.05,.5,.12,.75V55.7l.42,.27c.17,.11,2.92,1.84,6.58,1.84,1.88,0,4.01-.46,6.15-1.84l.41-.26v-.07h29.54V21.62h-29.59Zm-1.75,33.08c-4.36,2.54-8.62,.69-9.95-.02V23.54c1.25,.77,3,1.24,4.99,1.24s3.73-.48,4.98-1.24l-.02,31.16Zm-4.96-31.48c-3.15,0-5.34-1.34-5.34-2.53s2.19-2.53,5.34-2.53,5.34,1.34,5.34,2.53-2.19,2.53-5.34,2.53Zm34.51,30.61h-27.72V23.42h27.72v30.4Z" fill="none"/>  
  <polygon points="64.56 74.56 86.09 74.56 86.09 37.28 64.56 74.56" fill="none"/>
  <path d="M23.39,23.54v31.14c1.33,.71,5.59,2.56,9.95,.02l.02-31.16c-1.25,.77-3,1.24-4.98,1.24s-3.74-.48-4.99-1.24Z" fill="#a8c82a"/>
  <path d="M28.38,18.15c-3.15,0-5.34,1.34-5.34,2.53s2.19,2.53,5.34,2.53,5.34-1.34,5.34-2.53-2.19-2.53-5.34-2.53Z" fill="#a8c82a"/>
  <path d="M35.16,53.82h27.72V23.42h-27.72v30.4Zm12.62-27.34h11.3v9.83h-1.8v-8.03h-9.5v-1.8Zm-9.48,17.78h10.72v1.8h-10.72v-1.8Zm0,5.01h10.72v1.8h-10.72v-1.8Z" fill="#a8c82a"/>
  <path d="M86.09,37.28L64.56,0H21.52L0,37.28l21.52,37.28h43.04l21.52-37.27h0Zm-50.95,18.34v.07l-.41,.26c-2.14,1.38-4.26,1.84-6.15,1.84-3.66,0-6.4-1.73-6.58-1.84l-.42-.27V21.43c-.07-.24-.12-.49-.12-.75,0-2.3,3.03-4.1,6.91-4.1s6.91,1.8,6.91,4.1c0,.32-.08,.64-.19,.94h29.59V55.62h-29.54Z" fill="#a8c82a"/>
</svg>